<svg width="46" height="46" viewBox="0 0 46 46" fill="none" xmlns="http://www.w3.org/2000/svg">
<path d="M17.8222 4.07668C19.1382 2.95668 19.7962 2.39668 20.4822 2.06768C21.2679 1.69196 22.1278 1.49695 22.9987 1.49695C23.8696 1.49695 24.7295 1.69196 25.5152 2.06768C26.2036 2.39434 26.8616 2.95434 28.1752 4.07668C28.7002 4.52468 28.9616 4.74634 29.2416 4.93301C29.8828 5.36275 30.6029 5.66096 31.3602 5.81034C31.6892 5.87568 32.0322 5.90368 32.7182 5.95968C34.4426 6.09501 35.3036 6.16501 36.0222 6.41934C36.8431 6.70902 37.5887 7.17874 38.2044 7.79405C38.8201 8.40937 39.2903 9.15468 39.5806 9.97534C39.8349 10.6963 39.9026 11.5573 40.0402 13.2793C40.0939 13.9653 40.1219 14.3083 40.1872 14.6397C40.3366 15.3957 40.6352 16.1167 41.0646 16.756C41.2512 17.036 41.4752 17.2973 41.9209 17.8223C43.0409 19.1383 43.6032 19.7963 43.9322 20.4823C44.3079 21.2681 44.5029 22.1279 44.5029 22.9988C44.5029 23.8698 44.3079 24.7296 43.9322 25.5153C43.6056 26.2013 43.0432 26.8593 41.9209 28.1753C41.6158 28.5146 41.3299 28.8706 41.0646 29.2417C40.6349 29.8821 40.3367 30.6015 40.1872 31.358C40.1219 31.6893 40.0939 32.0323 40.0402 32.7183C39.9026 34.4403 39.8349 35.3037 39.5806 36.0223C39.2903 36.843 38.8201 37.5883 38.2044 38.2036C37.5887 38.819 36.8431 39.2887 36.0222 39.5783C35.3036 39.835 34.4426 39.9027 32.7182 40.038C32.0322 40.094 31.6916 40.122 31.3602 40.1873C30.6029 40.3367 29.8828 40.6349 29.2416 41.0647C28.8712 41.3301 28.516 41.616 28.1776 41.921C26.8616 43.041 26.2036 43.601 25.5176 43.93C24.7318 44.3057 23.872 44.5007 23.0011 44.5007C22.1301 44.5007 21.2703 44.3057 20.4846 43.93C19.7962 43.6033 19.1382 43.0433 17.8246 41.921C17.4853 41.616 17.1293 41.3301 16.7582 41.0647C16.117 40.6349 15.3969 40.3367 14.6396 40.1873C14.19 40.1125 13.7366 40.0626 13.2816 40.038C11.5572 39.9027 10.6962 39.8327 9.97756 39.5783C9.1567 39.2887 8.41108 38.819 7.79536 38.2036C7.17964 37.5883 6.70944 36.843 6.41922 36.0223C6.16489 35.3037 6.09722 34.4403 5.95956 32.7183C5.93625 32.2625 5.88717 31.8083 5.81255 31.358C5.66288 30.6015 5.36468 29.8822 4.93522 29.2417C4.74856 28.9617 4.52456 28.7003 4.07889 28.1753C2.95889 26.8593 2.39656 26.2013 2.06756 25.5153C1.69184 24.7296 1.49683 23.8698 1.49683 22.9988C1.49683 22.1279 1.69184 21.2681 2.06756 20.4823C2.39656 19.7963 2.95656 19.1383 4.07889 17.8223C4.52456 17.2973 4.74856 17.036 4.93522 16.756C5.36468 16.1155 5.66288 15.3962 5.81255 14.6397C5.87789 14.3083 5.90589 13.9653 5.95956 13.2793C6.09722 11.5573 6.16489 10.6963 6.41922 9.97534C6.70968 9.15444 7.18024 8.40897 7.79638 7.79364C8.41252 7.17831 9.1586 6.70873 9.97989 6.41934C10.6986 6.16501 11.5596 6.09501 13.2839 5.95968C13.9699 5.90368 14.3106 5.87568 14.6419 5.81034C15.3992 5.66096 16.1193 5.36275 16.7606 4.93301C17.0406 4.74634 17.2996 4.52468 17.8222 4.07668Z" stroke="white" stroke-width="2.5"/>
<path d="M14.8333 24.1667L19.4999 28.8334L31.1666 17.1667" stroke="white" stroke-width="2.5" stroke-linecap="round" stroke-linejoin="round"/>
</svg>
