<svg width="56" height="56" viewBox="0 0 56 56" fill="none" xmlns="http://www.w3.org/2000/svg">
<path d="M4.66663 30.3333H12.04C14.1516 30.3333 15.2086 30.3333 16.1373 30.7603C17.066 31.1873 17.752 31.99 19.1263 33.593L20.5403 35.2403C21.9146 36.8433 22.6006 37.646 23.5293 38.073C24.458 38.5 25.5126 38.5 27.6266 38.5H28.3733C30.485 38.5 31.542 38.5 32.4706 38.073C33.3993 37.646 34.0853 36.8433 35.4596 35.2403L36.8736 33.593C38.248 31.99 38.934 31.1873 39.8626 30.7603C40.7913 30.3333 41.846 30.3333 43.96 30.3333H51.3333M18.6666 16.3333H37.3333M23.3333 24.5H32.6666" stroke="white" stroke-width="2.5" stroke-linecap="round"/>
<path d="M51.3333 28C51.3333 38.9993 51.3333 44.499 47.915 47.915C44.5013 51.3333 38.9993 51.3333 28 51.3333C17.0006 51.3333 11.501 51.3333 8.08263 47.915C4.66663 44.5013 4.66663 38.9993 4.66663 28C4.66663 17.0007 4.66663 11.501 8.08263 8.08266C11.5033 4.66666 17.0006 4.66666 28 4.66666C38.9993 4.66666 44.499 4.66666 47.915 8.08266C50.1876 10.3553 50.9483 13.5497 51.205 18.6667" stroke="white" stroke-width="2.5" stroke-linecap="round"/>
</svg>
