<svg width="50" height="50" viewBox="0 0 50 50" fill="none" xmlns="http://www.w3.org/2000/svg">
<path d="M1.66663 27.3333H9.03996C11.1516 27.3333 12.2086 27.3333 13.1373 27.7603C14.066 28.1873 14.752 28.99 16.1263 30.593L17.5403 32.2403C18.9146 33.8433 19.6006 34.646 20.5293 35.073C21.458 35.5 22.5126 35.5 24.6266 35.5H25.3733C27.485 35.5 28.542 35.5 29.4706 35.073C30.3993 34.646 31.0853 33.8433 32.4596 32.2403L33.8736 30.593C35.248 28.99 35.934 28.1873 36.8626 27.7603C37.7913 27.3333 38.846 27.3333 40.96 27.3333H48.3333M15.6666 13.3333H34.3333M20.3333 21.5H29.6666" stroke="white" stroke-width="2.5" stroke-linecap="round"/>
<path d="M48.3333 25C48.3333 35.9993 48.3333 41.499 44.915 44.915C41.5013 48.3333 35.9993 48.3333 25 48.3333C14.0006 48.3333 8.50096 48.3333 5.08263 44.915C1.66663 41.5013 1.66663 35.9993 1.66663 25C1.66663 14.0007 1.66663 8.50099 5.08263 5.08266C8.50329 1.66666 14.0006 1.66666 25 1.66666C35.9993 1.66666 41.499 1.66666 44.915 5.08266C47.1876 7.35532 47.9483 10.5497 48.205 15.6667" stroke="white" stroke-width="2.5" stroke-linecap="round"/>
</svg>
