<svg width="46" height="50" viewBox="0 0 46 50" fill="none" xmlns="http://www.w3.org/2000/svg">
<path d="M32.3333 6.33331C37.4083 6.36131 40.157 6.58765 41.949 8.37965C44 10.4306 44 13.73 44 20.3286V34.3287C44 40.9297 44 44.229 41.949 46.28C39.9003 48.3287 36.5987 48.3287 30 48.3287H16C9.40133 48.3287 6.09967 48.3287 4.051 46.28C2 44.2267 2 40.9297 2 34.3287V20.3286C2 13.73 2 10.4306 4.051 8.37965C5.843 6.58765 8.59167 6.36131 13.6667 6.33331" stroke="white" stroke-width="2.5"/>
<path d="M16 28.2667L19.9993 32L30 22.6667" stroke="white" stroke-width="2.5" stroke-linecap="round" stroke-linejoin="round"/>
<path d="M13.6667 5.16666C13.6667 4.2384 14.0355 3.34816 14.6919 2.69178C15.3483 2.03541 16.2385 1.66666 17.1667 1.66666H28.8334C29.7617 1.66666 30.6519 2.03541 31.3083 2.69178C31.9647 3.34816 32.3334 4.2384 32.3334 5.16666V7.49999C32.3334 8.42825 31.9647 9.31849 31.3083 9.97486C30.6519 10.6312 29.7617 11 28.8334 11H17.1667C16.2385 11 15.3483 10.6312 14.6919 9.97486C14.0355 9.31849 13.6667 8.42825 13.6667 7.49999V5.16666Z" stroke="white" stroke-width="2.5"/>
</svg>
