<svg width="29" height="29" viewBox="0 0 29 29" fill="none" xmlns="http://www.w3.org/2000/svg">
<path d="M14.3453 26.2994C12.9074 26.2994 11.948 25.6203 11.0913 25.0222C10.4823 24.5908 9.91196 24.1812 9.23892 24.0676C8.91847 24.0124 8.59377 23.9857 8.26863 23.9878C7.69829 23.9878 7.24517 24.0736 6.92254 24.1389C6.71713 24.1751 6.54554 24.209 6.41021 24.209C6.27004 24.209 6.09242 24.1703 6.02354 23.9335C5.96313 23.7401 5.92567 23.5565 5.88821 23.3788C5.79154 22.9317 5.71058 22.6575 5.54262 22.6297C3.74342 22.3554 2.66679 21.9409 2.45654 21.4503C2.43962 21.3972 2.41908 21.3416 2.41908 21.2993C2.407 21.1495 2.51575 21.025 2.66679 20.9972C4.09383 20.7616 5.37587 20.0015 6.45854 18.7521C7.29954 17.7818 7.70917 16.8442 7.74662 16.7427C7.74662 16.7306 7.7575 16.7306 7.7575 16.7306C7.96292 16.3065 8.00521 15.9452 7.88075 15.6491C7.64875 15.0933 6.88387 14.8565 6.36188 14.6945C6.22775 14.6583 6.11417 14.6148 6.0175 14.5822C5.57042 14.4045 4.82608 14.0263 4.92396 13.5043C4.99404 13.1273 5.49429 12.8579 5.90392 12.8579C6.0175 12.8579 6.11417 12.8748 6.19392 12.9183C6.65308 13.1273 7.06754 13.2349 7.42279 13.2349C7.86504 13.2349 8.07529 13.0681 8.12846 13.015C8.11721 12.776 8.10311 12.5371 8.08617 12.2984C7.97742 10.649 7.85417 8.60212 8.37617 7.42883C9.94458 3.91621 13.2735 3.63467 14.2595 3.63467L14.6897 3.625H14.7501C15.7349 3.625 19.0639 3.89929 20.6323 7.41796C21.1603 8.59125 21.031 10.6442 20.9223 12.2875L20.9114 12.3685C20.9018 12.5884 20.8848 12.7987 20.8752 13.015C20.9283 13.0572 21.1217 13.2192 21.5204 13.224C21.866 13.2143 22.243 13.1007 22.6732 12.9062C22.7923 12.8547 22.9204 12.8276 23.0502 12.8265C23.2012 12.8265 23.3523 12.8627 23.4815 12.9062H23.4924C23.8537 13.0415 24.0905 13.2941 24.0905 13.5587C24.1014 13.8064 23.9069 14.1834 22.9861 14.5556C22.8895 14.5918 22.7759 14.6365 22.6418 14.668C22.1294 14.825 21.3645 15.0727 21.1217 15.6225C20.9875 15.9125 21.0407 16.2847 21.2461 16.7052C21.2461 16.7149 21.257 16.7149 21.257 16.7149C21.3162 16.8659 22.8725 20.4003 26.3368 20.9767C26.4076 20.9886 26.4717 21.0258 26.5173 21.0813C26.5628 21.1368 26.5867 21.207 26.5845 21.2787C26.5854 21.333 26.5725 21.3866 26.5471 21.4346C26.3368 21.93 25.2699 22.3336 23.4598 22.614C23.293 22.6405 23.2121 22.916 23.1154 23.3631C23.0771 23.5495 23.0323 23.7345 22.9813 23.9177C22.9269 24.0954 22.8133 24.192 22.6188 24.192H22.5934C22.4211 24.1887 22.2496 24.1688 22.0811 24.1328C21.6382 24.0385 21.1866 23.9915 20.7338 23.9927C20.4091 23.9934 20.085 24.0205 19.7647 24.0736C19.0965 24.1824 18.5201 24.5968 17.9111 25.0282C17.0435 25.6203 16.0793 26.2994 14.6523 26.2994H14.3453Z" fill="#566AED"/>
</svg>
