<svg width="56" height="56" viewBox="0 0 56 56" fill="none" xmlns="http://www.w3.org/2000/svg">
<path d="M37.3333 9.33325C42.4083 9.36125 45.157 9.58758 46.949 11.3796C49 13.4306 49 16.7299 49 23.3286V37.3286C49 43.9296 49 47.2289 46.949 49.2799C44.9003 51.3286 41.5987 51.3286 35 51.3286H21C14.4013 51.3286 11.0997 51.3286 9.051 49.2799C7 47.2266 7 43.9296 7 37.3286V23.3286C7 16.7299 7 13.4306 9.051 11.3796C10.843 9.58758 13.5917 9.36125 18.6667 9.33325" stroke="#566AED" stroke-width="2.5"/>
<path d="M21 31.2666L24.9993 35L35 25.6666" stroke="#566AED" stroke-width="2.5" stroke-linecap="round" stroke-linejoin="round"/>
<path d="M18.6667 8.16663C18.6667 7.23837 19.0354 6.34813 19.6918 5.69175C20.3482 5.03538 21.2384 4.66663 22.1667 4.66663H33.8334C34.7616 4.66663 35.6518 5.03538 36.3082 5.69175C36.9646 6.34813 37.3334 7.23837 37.3334 8.16663V10.5C37.3334 11.4282 36.9646 12.3185 36.3082 12.9748C35.6518 13.6312 34.7616 14 33.8334 14H22.1667C21.2384 14 20.3482 13.6312 19.6918 12.9748C19.0354 12.3185 18.6667 11.4282 18.6667 10.5V8.16663Z" stroke="#566AED" stroke-width="2.5"/>
</svg>
