<svg width="56" height="56" viewBox="0 0 56 56" fill="none" xmlns="http://www.w3.org/2000/svg">
<path d="M4.66667 30.3333H12.04C14.1517 30.3333 15.2087 30.3333 16.1373 30.7603C17.066 31.1873 17.752 31.9899 19.1263 33.5929L20.5403 35.2403C21.9147 36.8433 22.6007 37.6459 23.5293 38.0729C24.458 38.4999 25.5127 38.4999 27.6267 38.4999H28.3733C30.485 38.4999 31.542 38.4999 32.4707 38.0729C33.3993 37.6459 34.0853 36.8433 35.4597 35.2403L36.8737 33.5929C38.248 31.9899 38.934 31.1873 39.8627 30.7603C40.7913 30.3333 41.846 30.3333 43.96 30.3333H51.3333M18.6667 16.3333H37.3333M23.3333 24.4999H32.6667" stroke="#566AED" stroke-width="2.5" stroke-linecap="round"/>
<path d="M51.3333 28C51.3333 38.9993 51.3333 44.499 47.915 47.915C44.5013 51.3333 38.9993 51.3333 28 51.3333C17.0007 51.3333 11.501 51.3333 8.08267 47.915C4.66667 44.5013 4.66667 38.9993 4.66667 28C4.66667 17.0006 4.66667 11.501 8.08267 8.08263C11.5033 4.66663 17.0007 4.66663 28 4.66663C38.9993 4.66663 44.499 4.66663 47.915 8.08263C50.1877 10.3553 50.9483 13.5496 51.205 18.6666" stroke="#566AED" stroke-width="2.5" stroke-linecap="round"/>
</svg>
