<svg width="32" height="32" viewBox="0 0 32 32" fill="none" xmlns="http://www.w3.org/2000/svg">
<path fill-rule="evenodd" clip-rule="evenodd" d="M14.6854 6.39984C14.9147 6.09984 15.3307 5.6665 16 5.6665C16.6694 5.6665 17.0854 6.09984 17.3147 6.39984C17.5347 6.68517 17.7547 7.08117 17.9814 7.48784L18.1427 7.7785L18.2187 7.91184L18.3507 7.9425L18.668 8.0145C19.104 8.11317 19.5387 8.2105 19.872 8.3425C20.24 8.48784 20.7387 8.76917 20.932 9.38917C21.1214 9.99584 20.8827 10.5105 20.6747 10.8425C20.4814 11.1492 20.188 11.4905 19.888 11.8412L19.6747 12.0918L19.5654 12.2212C19.568 12.2692 19.5747 12.3252 19.5814 12.4012L19.6134 12.7345C19.6587 13.2025 19.7027 13.6558 19.6867 14.0185C19.6707 14.3998 19.58 14.9758 19.0627 15.3665C18.5294 15.7718 17.9427 15.6838 17.5694 15.5758C17.2254 15.4785 16.8187 15.2905 16.4094 15.1025L16.1134 14.9652L16 14.9132L15.8867 14.9665L15.5894 15.1025C15.1814 15.2905 14.7747 15.4785 14.4307 15.5758C14.0574 15.6825 13.4707 15.7718 12.9374 15.3665C12.4214 14.9758 12.3294 14.3998 12.3134 14.0198C12.2974 13.6558 12.34 13.2025 12.3867 12.7332L12.4187 12.3998L12.436 12.2212C12.3994 12.1778 12.3625 12.1347 12.3254 12.0918L12.112 11.8412C11.812 11.4905 11.5187 11.1478 11.3254 10.8412C11.1174 10.5105 10.8787 9.99584 11.068 9.38784C11.26 8.7705 11.76 8.48784 12.128 8.3425C12.4614 8.2105 12.896 8.11317 13.332 8.0145L13.6494 7.9425L13.7827 7.91184L13.8574 7.7785L14.0187 7.48784C14.2454 7.08117 14.4654 6.68517 14.6854 6.39984ZM16 8.04517C15.9227 8.17984 15.836 8.3345 15.7347 8.51717L15.604 8.75184L15.5734 8.80517C15.4694 8.99717 15.296 9.3145 15.0067 9.5345C14.712 9.7585 14.356 9.83584 14.1494 9.88117L14.0907 9.89317L13.8374 9.9505C13.6027 10.0038 13.412 10.0465 13.2507 10.0878C13.356 10.2172 13.4934 10.3798 13.672 10.5892L13.8454 10.7918L13.8854 10.8372C14.0294 11.0038 14.2614 11.2705 14.3694 11.6172C14.476 11.9585 14.4387 12.3105 14.416 12.5318L14.4094 12.5945L14.3827 12.8652C14.3622 13.0694 14.3435 13.2739 14.3267 13.4785C14.4667 13.4172 14.624 13.3452 14.812 13.2585L15.0507 13.1492L15.104 13.1225C15.296 13.0332 15.628 12.8758 16 12.8758C16.372 12.8758 16.704 13.0332 16.896 13.1238L16.9494 13.1492L17.188 13.2585C17.3747 13.3452 17.5347 13.4185 17.6734 13.4785C17.6566 13.2739 17.6379 13.0694 17.6174 12.8652L17.5907 12.5945L17.584 12.5318C17.5614 12.3092 17.524 11.9585 17.6307 11.6172C17.7374 11.2705 17.9707 11.0038 18.1147 10.8372L18.1547 10.7918L18.328 10.5892C18.5067 10.3798 18.644 10.2172 18.7494 10.0878C18.588 10.0478 18.3974 10.0038 18.1627 9.9505L17.9094 9.89317L17.8507 9.87984C17.644 9.83584 17.288 9.7585 16.9934 9.53317C16.704 9.3145 16.5307 8.99717 16.4267 8.8065L16.396 8.75184L16.2654 8.51717C16.164 8.3345 16.0787 8.17984 16 8.04517Z" fill="#566AED"/>
<path fill-rule="evenodd" clip-rule="evenodd" d="M9.99735 2.14258C11.9815 1.81732 13.9894 1.6581 16 1.66658C18.4374 1.66658 20.452 1.88125 22.0027 2.14258L22.1827 2.17325C23.5294 2.39858 24.6494 2.58658 25.524 3.66391C26.0854 4.35591 26.2667 5.10391 26.308 5.93725L26.964 6.15591C27.5814 6.36125 28.124 6.54258 28.552 6.74258C29.016 6.95858 29.4414 7.23591 29.7667 7.68791C30.092 8.13858 30.2214 8.63058 30.28 9.13858C30.3334 9.60925 30.3334 10.1786 30.3334 10.8319V11.0239C30.3334 11.5599 30.3334 12.0332 30.2934 12.4292C30.2507 12.8572 30.156 13.2746 29.92 13.6772C29.6814 14.0812 29.3627 14.3666 29.0094 14.6119C28.6827 14.8386 28.2694 15.0692 27.8 15.3292L24.28 17.2852C23.56 18.6999 22.5734 19.9612 21.2134 20.8719C20.0467 21.6546 18.6507 22.1506 17 22.2919V24.9999H18.9067C19.4461 24.9999 19.9689 25.1869 20.3861 25.5289C20.8032 25.8709 21.089 26.3469 21.1947 26.8759L21.4867 28.3332H24C24.2652 28.3332 24.5196 28.4386 24.7071 28.6261C24.8947 28.8137 25 29.068 25 29.3332C25 29.5985 24.8947 29.8528 24.7071 30.0404C24.5196 30.2279 24.2652 30.3332 24 30.3332H8.00002C7.7348 30.3332 7.48045 30.2279 7.29291 30.0404C7.10538 29.8528 7.00002 29.5985 7.00002 29.3332C7.00002 29.068 7.10538 28.8137 7.29291 28.6261C7.48045 28.4386 7.7348 28.3332 8.00002 28.3332H10.5134L10.8054 26.8759C10.9111 26.3469 11.1968 25.8709 11.614 25.5289C12.0311 25.1869 12.5539 24.9999 13.0934 24.9999H15V22.2919C13.3494 22.1506 11.9534 21.6546 10.7867 20.8732C9.42802 19.9612 8.44002 18.6999 7.72002 17.2852L4.20002 15.3292C3.78582 15.1093 3.38226 14.87 2.99069 14.6119C2.62192 14.3723 2.31126 14.0535 2.08135 13.6786C1.86479 13.2953 1.73677 12.8684 1.70669 12.4292C1.66669 12.0332 1.66669 11.5599 1.66669 11.0239V10.8306C1.66669 10.1799 1.66669 9.60925 1.72002 9.13858C1.77869 8.63058 1.90669 8.13858 2.23335 7.68791C2.55869 7.23591 2.98402 6.95858 3.44669 6.74125C3.87735 6.54125 4.41869 6.36125 5.03602 6.15591L5.69202 5.93725C5.73335 5.10258 5.91469 4.35591 6.47602 3.66391C7.35202 2.58525 8.47069 2.39725 9.81869 2.17325L9.99735 2.14258ZM12.5534 28.3332H19.4467L19.2334 27.2679C19.2183 27.1924 19.1775 27.1244 19.1179 27.0755C19.0584 27.0267 18.9837 27 18.9067 26.9999H13.0934C13.0163 27 12.9417 27.0267 12.8821 27.0755C12.8226 27.1244 12.7818 27.1924 12.7667 27.2679L12.5534 28.3332ZM5.73602 8.03058L5.71735 8.03725C5.03735 8.26391 4.60535 8.41058 4.29069 8.55591C4.00135 8.68925 3.90802 8.78391 3.85602 8.85725C3.80269 8.92925 3.74402 9.04791 3.70802 9.36525C3.66802 9.70925 3.66669 10.1652 3.66669 10.8826V10.9799C3.66669 11.5732 3.66669 11.9452 3.69602 12.2306C3.72269 12.4919 3.76535 12.5972 3.80535 12.6639C3.84402 12.7306 3.91469 12.8186 4.13069 12.9692C4.36535 13.1319 4.69069 13.3132 5.21069 13.6026L6.63069 14.3919C6.06002 12.2986 5.83069 10.0586 5.73735 8.03191L5.73602 8.03058ZM25.3694 14.3906C25.94 12.2972 26.1694 10.0572 26.264 8.03058L26.2827 8.03725C26.9627 8.26391 27.3947 8.41058 27.7094 8.55591C27.9987 8.68925 28.092 8.78391 28.144 8.85725C28.1974 8.92925 28.256 9.04791 28.292 9.36525C28.332 9.70925 28.3334 10.1652 28.3334 10.8826V10.9799C28.3334 11.5732 28.3334 11.9452 28.304 12.2306C28.2774 12.4919 28.2347 12.5972 28.1947 12.6639C28.156 12.7306 28.0854 12.8186 27.8694 12.9692C27.6334 13.1319 27.3094 13.3132 26.7894 13.6026L25.3694 14.3906ZM16 3.66658C13.68 3.66658 11.7774 3.87058 10.3307 4.11458C8.72135 4.38658 8.38402 4.48791 8.02935 4.92525C7.68002 5.35458 7.64669 5.76258 7.71735 7.56925C7.83735 10.5799 8.23469 13.8306 9.46402 16.3026C10.072 17.5212 10.8667 18.5186 11.9014 19.2119C12.928 19.9012 14.2547 20.3332 16 20.3332C17.7467 20.3332 19.072 19.9012 20.1 19.2119C21.1347 18.5186 21.928 17.5212 22.5347 16.3012C23.7654 13.8306 24.1627 10.5812 24.2814 7.56791C24.3547 5.76258 24.3214 5.35458 23.972 4.92525C23.6174 4.48791 23.2787 4.38658 21.6694 4.11458C19.7953 3.80797 17.899 3.65812 16 3.66658Z" fill="#566AED"/>
</svg>
