<svg width="32" height="32" viewBox="0 0 32 32" fill="none" xmlns="http://www.w3.org/2000/svg">
<path fill-rule="evenodd" clip-rule="evenodd" d="M15.924 1.66663H16.076C19.1547 1.66663 21.5667 1.66663 23.4493 1.91996C25.3747 2.17863 26.8947 2.71996 28.088 3.91196C29.2813 5.10529 29.8213 6.62529 30.08 8.55196C30.3333 10.4333 30.3333 12.8453 30.3333 15.924V17.2973C30.3342 17.3226 30.3342 17.348 30.3333 17.3733C30.328 19.8426 30.2973 21.84 30.08 23.448C29.8213 25.3746 29.28 26.8946 28.088 28.088C26.8947 29.2813 25.3747 29.8213 23.448 30.08C21.5667 30.3333 19.1547 30.3333 16.076 30.3333H15.924C12.8453 30.3333 10.4333 30.3333 8.55067 30.08C6.62533 29.8213 5.10533 29.28 3.912 28.088C2.71867 26.8946 2.17867 25.3746 1.92 23.448C1.70267 21.8386 1.672 19.8426 1.66667 17.3733C1.66572 17.348 1.66572 17.3226 1.66667 17.2973V15.924C1.66667 12.8453 1.66667 10.4333 1.92 8.55063C2.17867 6.62529 2.72 5.10529 3.912 3.91196C5.10533 2.71863 6.62533 2.17863 8.552 1.91996C10.4333 1.66663 12.8453 1.66663 15.924 1.66663ZM3.67067 18.3333C3.684 20.3373 3.73067 21.9066 3.90133 23.1813C4.13067 24.8866 4.568 25.9146 5.32667 26.6746C6.08667 27.4333 7.11333 27.8693 8.81867 28.0986C10.552 28.3306 12.8293 28.3333 16 28.3333C19.1707 28.3333 21.448 28.3306 23.1813 28.0986C24.8867 27.8693 25.9147 27.432 26.6747 26.6733C27.4333 25.9133 27.8693 24.8866 28.0987 23.1813C28.2693 21.9066 28.316 20.3373 28.328 18.3333H25.12C23.8213 18.3333 23.4813 18.3546 23.1973 18.4853C22.912 18.6173 22.6747 18.8613 21.8293 19.8453L21.0227 20.788L20.9053 20.924C20.236 21.7066 19.7053 22.3266 18.972 22.664C18.2387 23.0013 17.4227 23.0013 16.3933 23H15.608C14.5773 23 13.7613 23.0026 13.028 22.664C12.2947 22.3266 11.764 21.7066 11.0947 20.924C11.0547 20.88 11.0173 20.8346 10.9773 20.788L10.1707 19.8466C9.32533 18.86 9.088 18.6173 8.80267 18.4866C8.51867 18.3546 8.17867 18.3333 6.88 18.3333H3.67067ZM28.3333 16.3333H24.9413C23.9107 16.3333 23.0947 16.3306 22.3613 16.6693C21.628 17.0066 21.0973 17.6266 20.428 18.4093C20.388 18.4533 20.3507 18.4986 20.3107 18.5453L19.504 19.4866C18.6587 20.4733 18.4213 20.716 18.136 20.8466C17.852 20.9786 17.512 21 16.2133 21H15.7867C14.488 21 14.148 20.9786 13.864 20.848C13.5787 20.716 13.3413 20.472 12.496 19.488L11.6893 18.5453L11.572 18.4093C10.9027 17.6266 10.372 17.0066 9.63867 16.6693C8.90533 16.3306 8.08933 16.332 7.06 16.3333H3.66667V16C3.66667 12.8293 3.66933 10.552 3.90133 8.81863C4.13067 7.11329 4.568 6.08529 5.32667 5.32529C6.08667 4.56663 7.11333 4.13063 8.81867 3.90129C10.552 3.66929 12.8293 3.66663 16 3.66663C19.1707 3.66663 21.448 3.66929 23.1813 3.90129C24.8867 4.13063 25.9147 4.56796 26.6747 5.32663C27.4333 6.08663 27.8693 7.11329 28.0987 8.81863C28.3307 10.552 28.3333 12.8293 28.3333 16V16.3333ZM9.66667 9.33329C9.66667 9.06808 9.77203 8.81372 9.95956 8.62619C10.1471 8.43865 10.4015 8.33329 10.6667 8.33329H21.3333C21.5986 8.33329 21.8529 8.43865 22.0404 8.62619C22.228 8.81372 22.3333 9.06808 22.3333 9.33329C22.3333 9.59851 22.228 9.85286 22.0404 10.0404C21.8529 10.2279 21.5986 10.3333 21.3333 10.3333H10.6667C10.4015 10.3333 10.1471 10.2279 9.95956 10.0404C9.77203 9.85286 9.66667 9.59851 9.66667 9.33329ZM12.3333 14C12.3333 13.7347 12.4387 13.4804 12.6262 13.2929C12.8138 13.1053 13.0681 13 13.3333 13H18.6667C18.9319 13 19.1862 13.1053 19.3738 13.2929C19.5613 13.4804 19.6667 13.7347 19.6667 14C19.6667 14.2652 19.5613 14.5195 19.3738 14.7071C19.1862 14.8946 18.9319 15 18.6667 15H13.3333C13.0681 15 12.8138 14.8946 12.6262 14.7071C12.4387 14.5195 12.3333 14.2652 12.3333 14Z" fill="#566AED"/>
</svg>
