<svg width="32" height="32" viewBox="0 0 32 32" fill="none" xmlns="http://www.w3.org/2000/svg">
<path fill-rule="evenodd" clip-rule="evenodd" d="M27.8987 15.6667H24.3067C22.408 15.6667 20.9987 17.0787 20.9987 18.6667C20.9987 20.2547 22.408 21.6667 24.3053 21.6667H27.9293C28.204 21.6494 28.3227 21.4641 28.332 21.3521V15.9814C28.3227 15.8694 28.204 15.6841 27.9293 15.6681H27.8973L27.8987 15.6667ZM27.8 13.6667C27.888 13.6667 27.9733 13.6667 28.0533 13.6721C29.2133 13.7427 30.2413 14.6187 30.328 15.8427C30.3333 15.9227 30.3333 16.0094 30.3333 16.0894V21.2441C30.3333 21.3241 30.3333 21.4107 30.328 21.4907C30.2413 22.7147 29.2133 23.5907 28.052 23.6627C27.9733 23.6667 27.888 23.6667 27.7987 23.6667H24.308C21.448 23.6667 19 21.4961 19 18.6667C19 15.8374 21.448 13.6667 24.3067 13.6667H27.8Z" fill="#566AED"/>
<path d="M25.3334 18.6667C25.3334 19.0203 25.1929 19.3595 24.9428 19.6095C24.6928 19.8596 24.3536 20 24 20C23.6464 20 23.3073 19.8596 23.0572 19.6095C22.8072 19.3595 22.6667 19.0203 22.6667 18.6667C22.6667 18.3131 22.8072 17.9739 23.0572 17.7239C23.3073 17.4739 23.6464 17.3334 24 17.3334C24.3536 17.3334 24.6928 17.4739 24.9428 17.7239C25.1929 17.9739 25.3334 18.3131 25.3334 18.6667Z" fill="#566AED"/>
<path fill-rule="evenodd" clip-rule="evenodd" d="M27.8 13.6667C28.1825 13.6522 28.5633 13.7252 28.9134 13.88C28.7707 11.7387 28.3774 10.088 27.1454 8.8547C26.1467 7.85737 24.8814 7.4147 23.3187 7.20404L23.2627 7.19737C23.2487 7.18679 23.2345 7.17656 23.22 7.1667L18.2387 3.86404C17.3746 3.30014 16.3651 2.99988 15.3334 2.99988C14.3016 2.99988 13.2921 3.30014 12.428 3.86404L7.44802 7.1667C7.43309 7.17654 7.41842 7.18677 7.40402 7.19737L7.34802 7.20404C5.78535 7.4147 4.52002 7.85737 3.52135 8.8547C2.52402 9.85337 2.08135 11.1187 1.87069 12.6814C1.66669 14.2014 1.66669 16.1414 1.66669 18.592V18.7414C1.66669 21.192 1.66669 23.1334 1.87069 24.652C2.08135 26.2147 2.52402 27.48 3.52135 28.4787C4.52002 29.476 5.78535 29.9187 7.34802 30.1294C8.86802 30.3334 10.808 30.3334 13.2587 30.3334H17.408C19.8587 30.3334 21.8 30.3334 23.3187 30.1294C24.8814 29.9187 26.1467 29.476 27.1454 28.4787C28.3774 27.2454 28.7707 25.5947 28.9134 23.452C28.644 23.572 28.3534 23.644 28.052 23.6627C27.9734 23.6667 27.888 23.6667 27.7987 23.6667H26.8907C26.7387 25.4547 26.396 26.4 25.7307 27.064C25.1667 27.628 24.3934 27.9667 23.052 28.1467C21.6827 28.3307 19.876 28.3334 17.3334 28.3334H13.3334C10.7907 28.3334 8.98535 28.3307 7.61335 28.1467C6.27335 27.9667 5.50002 27.628 4.93602 27.064C4.37202 26.5 4.03335 25.7267 3.85335 24.3854C3.66935 23.016 3.66669 21.2094 3.66669 18.6667C3.66669 16.124 3.66935 14.3187 3.85335 12.9467C4.03335 11.6067 4.37202 10.8334 4.93602 10.2694C5.50002 9.70537 6.27335 9.3667 7.61469 9.1867C8.98535 9.0027 10.7907 9.00004 13.3334 9.00004H17.3334C19.876 9.00004 21.6827 9.0027 23.0534 9.1867C24.3934 9.3667 25.1667 9.70537 25.7307 10.2694C26.396 10.9334 26.7387 11.8787 26.8907 13.6667H27.8ZM13.2587 7.00004H17.408C18.0974 7.00004 18.7454 7.00004 19.3547 7.00404L17.1334 5.5307C16.0667 4.82404 14.6 4.82404 13.5334 5.5307L11.3107 7.00404C11.9214 7.00004 12.5694 7.00004 13.2574 7.00004H13.2587Z" fill="#566AED"/>
<path d="M8 12.3334C7.73478 12.3334 7.48043 12.4387 7.29289 12.6263C7.10536 12.8138 7 13.0682 7 13.3334C7 13.5986 7.10536 13.8529 7.29289 14.0405C7.48043 14.228 7.73478 14.3334 8 14.3334H13.3333C13.5985 14.3334 13.8529 14.228 14.0404 14.0405C14.228 13.8529 14.3333 13.5986 14.3333 13.3334C14.3333 13.0682 14.228 12.8138 14.0404 12.6263C13.8529 12.4387 13.5985 12.3334 13.3333 12.3334H8Z" fill="#566AED"/>
<path d="M25.3334 18.6667C25.3334 19.0203 25.1929 19.3595 24.9428 19.6095C24.6928 19.8596 24.3536 20 24 20C23.6464 20 23.3073 19.8596 23.0572 19.6095C22.8072 19.3595 22.6667 19.0203 22.6667 18.6667C22.6667 18.3131 22.8072 17.9739 23.0572 17.7239C23.3073 17.4739 23.6464 17.3334 24 17.3334C24.3536 17.3334 24.6928 17.4739 24.9428 17.7239C25.1929 17.9739 25.3334 18.3131 25.3334 18.6667Z" fill="#566AED"/>
</svg>
