<svg width="32" height="32" viewBox="0 0 32 32" fill="none" xmlns="http://www.w3.org/2000/svg">
<path fill-rule="evenodd" clip-rule="evenodd" d="M13.2587 1.66663H20.712C22.2307 1.66663 23.432 1.66663 24.4 1.74929C25.3907 1.83329 26.2267 2.00929 26.9867 2.41463C28.0914 3.00511 28.9962 3.90991 29.5867 5.01463C29.9907 5.77329 30.1667 6.60929 30.2507 7.59996C30.3334 8.56663 30.3334 9.76929 30.3334 11.288V11.3333C30.3334 11.5985 30.228 11.8529 30.0405 12.0404C29.8529 12.2279 29.5986 12.3333 29.3334 12.3333C29.0681 12.3333 28.8138 12.2279 28.6263 12.0404C28.4387 11.8529 28.3334 11.5985 28.3334 11.3333C28.3334 9.75996 28.3334 8.64263 28.2587 7.76929C28.1854 6.90796 28.0454 6.37729 27.8214 5.95729C27.4174 5.20158 26.7984 4.58261 26.0427 4.17863C25.6227 3.95463 25.092 3.81463 24.2307 3.74129C23.3574 3.66796 22.24 3.66663 20.6667 3.66663H13.3334C10.7907 3.66663 8.98536 3.66929 7.61336 3.85329C6.27336 4.03329 5.50003 4.37196 4.93603 4.93596C4.37203 5.49996 4.03336 6.27329 3.85336 7.61463C3.66936 8.98529 3.6667 10.7906 3.6667 13.3333V14.6666C3.6667 15.2786 3.6667 15.832 3.67203 16.3333H14.6667C14.9319 16.3333 15.1863 16.4386 15.3738 16.6262C15.5613 16.8137 15.6667 17.0681 15.6667 17.3333C15.6667 17.5985 15.5613 17.8529 15.3738 18.0404C15.1863 18.2279 14.9319 18.3333 14.6667 18.3333H3.7427C3.7587 18.5413 3.78003 18.7373 3.80403 18.9226C3.93603 19.9013 4.17736 20.4186 4.54536 20.788C4.9147 21.1573 5.43203 21.3973 6.41203 21.5293C7.41736 21.664 8.75336 21.6666 10.6667 21.6666H14.6667C14.9319 21.6666 15.1863 21.772 15.3738 21.9595C15.5613 22.1471 15.6667 22.4014 15.6667 22.6666V29.3333C15.6667 29.5985 15.5613 29.8529 15.3738 30.0404C15.1863 30.2279 14.9319 30.3333 14.6667 30.3333H10.6667C10.4015 30.3333 10.1471 30.2279 9.95959 30.0404C9.77205 29.8529 9.6667 29.5985 9.6667 29.3333C9.6667 29.0681 9.77205 28.8137 9.95959 28.6262C10.1471 28.4386 10.4015 28.3333 10.6667 28.3333H13.6667V23.6666H10.5934C8.7707 23.6666 7.30003 23.6666 6.14403 23.512C4.94403 23.3493 3.93336 23.0053 3.1307 22.2026C2.32803 21.4 1.98403 20.3893 1.8227 19.1893C1.75736 18.7093 1.72003 18.1733 1.69736 17.5813C1.66093 17.4387 1.65638 17.2898 1.68403 17.1453C1.6667 16.424 1.6667 15.6226 1.6667 14.74V13.2586C1.6667 10.808 1.6667 8.86663 1.8707 7.34796C2.08136 5.78529 2.52403 4.51996 3.52136 3.52129C4.52003 2.52396 5.78536 2.08129 7.34803 1.87063C8.86803 1.66663 10.808 1.66663 13.2587 1.66663ZM23.9307 13.6666H24.0694C25.268 13.6666 26.2667 13.6666 27.0587 13.7733C27.896 13.8853 28.652 14.1333 29.2587 14.7413C29.8667 15.348 30.1147 16.104 30.2267 16.9413C30.3334 17.7333 30.3334 18.7333 30.3334 19.9306V24.0693C30.3334 25.268 30.3334 26.2666 30.2267 27.0586C30.1147 27.896 29.8667 28.652 29.2587 29.2586C28.652 29.8666 27.896 30.1146 27.0587 30.2266C26.2667 30.3333 25.268 30.3333 24.0694 30.3333H23.9307C22.732 30.3333 21.7334 30.3333 20.9414 30.2266C20.104 30.1146 19.348 29.8666 18.7414 29.2586C18.1334 28.652 17.8854 27.896 17.7734 27.0586C17.6667 26.2666 17.6667 25.268 17.6667 24.0693V19.9306C17.6667 18.732 17.6667 17.7333 17.7734 16.9413C17.8854 16.104 18.1334 15.348 18.7414 14.7413C19.348 14.1333 20.104 13.8853 20.9414 13.7733C21.7334 13.6666 22.732 13.6666 23.9307 13.6666ZM21.2067 15.7546C20.592 15.8386 20.328 15.9813 20.1547 16.1546C19.9814 16.328 19.8387 16.592 19.7547 17.208C19.6694 17.8506 19.6667 18.7146 19.6667 20V24C19.6667 25.2853 19.6694 26.1493 19.7547 26.7933C19.8387 27.408 19.9814 27.672 20.1547 27.8453C20.328 28.0186 20.592 28.1613 21.208 28.2453C21.8507 28.3306 22.7147 28.3333 24 28.3333C25.2854 28.3333 26.1494 28.3306 26.7934 28.244C27.408 28.1613 27.672 28.0186 27.8454 27.844C28.0187 27.6706 28.1614 27.408 28.2454 26.7933C28.3307 26.1493 28.3334 25.2853 28.3334 24V20C28.3334 18.7146 28.3307 17.8506 28.244 17.2066C28.1614 16.592 28.0187 16.328 27.844 16.1546C27.6707 15.9813 27.408 15.8386 26.7934 15.7546C26.1494 15.6693 25.2854 15.6666 24 15.6666C22.7147 15.6666 21.8507 15.6693 21.2067 15.7546ZM21.6667 26.6666C21.6667 26.4014 21.7721 26.1471 21.9596 25.9595C22.1471 25.772 22.4015 25.6666 22.6667 25.6666H25.3334C25.5986 25.6666 25.8529 25.772 26.0405 25.9595C26.228 26.1471 26.3334 26.4014 26.3334 26.6666C26.3334 26.9318 26.228 27.1862 26.0405 27.3737C25.8529 27.5613 25.5986 27.6666 25.3334 27.6666H22.6667C22.4015 27.6666 22.1471 27.5613 21.9596 27.3737C21.7721 27.1862 21.6667 26.9318 21.6667 26.6666Z" fill="#566AED"/>
</svg>
