<svg width="32" height="32" viewBox="0 0 32 32" fill="none" xmlns="http://www.w3.org/2000/svg">
<path fill-rule="evenodd" clip-rule="evenodd" d="M13.2587 4.33337H18.7413C21.192 4.33337 23.1333 4.33337 24.652 4.53737C26.2147 4.74804 27.48 5.19071 28.4787 6.18804C29.476 7.18671 29.9187 8.45204 30.1293 10.0147C30.2493 10.912 30.2987 11.956 30.3187 13.1654C30.3361 13.2667 30.3379 13.3701 30.324 13.472C30.3333 14.2267 30.3333 15.0427 30.3333 15.9254V16.0747C30.3333 18.5254 30.3333 20.4667 30.1293 21.9854C29.9187 23.548 29.476 24.8134 28.4787 25.812C27.48 26.8094 26.2147 27.252 24.652 27.4627C23.132 27.6667 21.192 27.6667 18.7413 27.6667H13.2587C10.808 27.6667 8.86667 27.6667 7.348 27.4627C5.78533 27.252 4.52 26.8094 3.52133 25.812C2.524 24.8134 2.08133 23.548 1.87067 21.9854C1.66667 20.4654 1.66667 18.5254 1.66667 16.0747V15.9254C1.66667 15.0427 1.66667 14.2267 1.676 13.472C1.6617 13.3702 1.66305 13.2668 1.68 13.1654C1.70133 11.956 1.75067 10.912 1.87067 10.0147C2.08133 8.45204 2.524 7.18671 3.52133 6.18804C4.52 5.19071 5.78533 4.74804 7.348 4.53737C8.868 4.33337 10.808 4.33337 13.2587 4.33337ZM3.66933 14.3334C3.66667 14.8507 3.66667 15.4054 3.66667 16C3.66667 18.5427 3.66933 20.348 3.85333 21.72C4.03333 23.06 4.372 23.8334 4.936 24.3974C5.5 24.9614 6.27333 25.3 7.61467 25.48C8.98533 25.664 10.7907 25.6667 13.3333 25.6667H18.6667C21.2093 25.6667 23.016 25.664 24.3867 25.48C25.7267 25.3 26.5 24.9614 27.064 24.3974C27.628 23.8334 27.9667 23.06 28.1467 21.7187C28.3307 20.348 28.3333 18.5427 28.3333 16C28.3333 15.4054 28.3333 14.8507 28.3307 14.3334H3.66933ZM28.2987 12.3334H3.70133C3.728 11.5507 3.77333 10.8747 3.85333 10.28C4.03333 8.94004 4.372 8.16671 4.936 7.60271C5.5 7.03871 6.27333 6.70004 7.61467 6.52004C8.98533 6.33604 10.7907 6.33337 13.3333 6.33337H18.6667C21.2093 6.33337 23.016 6.33604 24.3867 6.52004C25.7267 6.70004 26.5 7.03871 27.064 7.60271C27.628 8.16671 27.9667 8.94004 28.1467 10.2814C28.2267 10.8747 28.272 11.5507 28.2987 12.3334ZM21.2733 16.3334H21.3933C21.9707 16.3334 22.5 16.3334 22.9293 16.3907C23.404 16.4547 23.904 16.604 24.316 17.0174C24.7293 17.4294 24.8787 17.9294 24.9427 18.404C25 18.8347 25 19.364 25 19.94V20.06C25 20.6374 25 21.1667 24.9427 21.596C24.8787 22.0707 24.7293 22.5707 24.316 22.9827C23.904 23.396 23.404 23.5454 22.9293 23.6094C22.4987 23.6667 21.9693 23.6667 21.3933 23.6667H21.2733C20.696 23.6667 20.1667 23.6667 19.7373 23.6094C19.2627 23.5454 18.7627 23.396 18.3507 22.9827C17.9373 22.5707 17.788 22.0707 17.724 21.596C17.6667 21.1654 17.6667 20.636 17.6667 20.06V19.94C17.6667 19.3627 17.6667 18.8334 17.724 18.404C17.788 17.9294 17.9373 17.4294 18.3507 17.0174C18.7627 16.604 19.2627 16.4547 19.7373 16.3907C20.168 16.3334 20.6973 16.3334 21.2733 16.3334ZM19.7667 18.4294L19.764 18.4307L19.7627 18.4347C19.7338 18.5106 19.715 18.5899 19.7067 18.6707C19.6693 18.9507 19.6667 19.3427 19.6667 20C19.6667 20.6574 19.6693 21.0494 19.7067 21.3294C19.715 21.4101 19.7338 21.4895 19.7627 21.5654L19.764 21.5694L19.768 21.5707C19.8439 21.5995 19.9232 21.6184 20.004 21.6267C20.284 21.664 20.676 21.6667 21.3333 21.6667C21.9907 21.6667 22.3827 21.664 22.6627 21.6267C22.7434 21.6184 22.8228 21.5995 22.8987 21.5707L22.9027 21.5694L22.904 21.5654C22.9328 21.4895 22.9516 21.4101 22.96 21.3294C22.9973 21.0494 23 20.6574 23 20C23 19.3427 22.9973 18.9507 22.96 18.6707C22.9516 18.5899 22.9328 18.5106 22.904 18.4347L22.9027 18.4307L22.8987 18.4294C22.8228 18.4005 22.7434 18.3817 22.6627 18.3734C22.3827 18.336 21.9907 18.3334 21.3333 18.3334C20.676 18.3334 20.284 18.336 20.004 18.3734C19.9232 18.3817 19.8439 18.4005 19.768 18.4294H19.7667ZM7 18C7 17.7348 7.10536 17.4805 7.29289 17.2929C7.48043 17.1054 7.73478 17 8 17H10.6667C10.9319 17 11.1862 17.1054 11.3738 17.2929C11.5613 17.4805 11.6667 17.7348 11.6667 18C11.6667 18.2653 11.5613 18.5196 11.3738 18.7071C11.1862 18.8947 10.9319 19 10.6667 19H8C7.73478 19 7.48043 18.8947 7.29289 18.7071C7.10536 18.5196 7 18.2653 7 18ZM7 22C7 21.7348 7.10536 21.4805 7.29289 21.2929C7.48043 21.1054 7.73478 21 8 21H13.3333C13.5985 21 13.8529 21.1054 14.0404 21.2929C14.228 21.4805 14.3333 21.7348 14.3333 22C14.3333 22.2653 14.228 22.5196 14.0404 22.7071C13.8529 22.8947 13.5985 23 13.3333 23H8C7.73478 23 7.48043 22.8947 7.29289 22.7071C7.10536 22.5196 7 22.2653 7 22Z" fill="#566AED"/>
</svg>
