<svg width="56" height="56" viewBox="0 0 56 56" fill="none" xmlns="http://www.w3.org/2000/svg">
<path d="M22.8223 9.07668C24.1383 7.95668 24.7963 7.39668 25.4823 7.06768C26.2681 6.69196 27.1279 6.49695 27.9988 6.49695C28.8698 6.49695 29.7296 6.69196 30.5153 7.06768C31.2037 7.39434 31.8617 7.95434 33.1753 9.07668C33.7003 9.52468 33.9617 9.74634 34.2417 9.93301C34.8829 10.3628 35.603 10.661 36.3603 10.8103C36.6893 10.8757 37.0323 10.9037 37.7183 10.9597C39.4427 11.095 40.3037 11.165 41.0223 11.4193C41.8432 11.709 42.5888 12.1787 43.2045 12.7941C43.8203 13.4094 44.2905 14.1547 44.5807 14.9753C44.835 15.6963 44.9027 16.5573 45.0403 18.2793C45.094 18.9653 45.122 19.3083 45.1873 19.6397C45.3367 20.3957 45.6354 21.1167 46.0647 21.756C46.2514 22.036 46.4753 22.2973 46.921 22.8223C48.041 24.1383 48.6034 24.7963 48.9324 25.4823C49.3081 26.2681 49.5031 27.1279 49.5031 27.9988C49.5031 28.8698 49.3081 29.7296 48.9324 30.5153C48.6057 31.2013 48.0433 31.8593 46.921 33.1753C46.6159 33.5146 46.33 33.8706 46.0647 34.2417C45.6351 34.8821 45.3368 35.6015 45.1873 36.358C45.122 36.6893 45.094 37.0323 45.0403 37.7183C44.9027 39.4403 44.835 40.3037 44.5807 41.0223C44.2905 41.843 43.8203 42.5883 43.2045 43.2036C42.5888 43.819 41.8432 44.2887 41.0223 44.5783C40.3037 44.835 39.4427 44.9027 37.7183 45.038C37.0323 45.094 36.6917 45.122 36.3603 45.1873C35.603 45.3367 34.8829 45.6349 34.2417 46.0647C33.8714 46.3301 33.5161 46.616 33.1777 46.921C31.8617 48.041 31.2037 48.601 30.5177 48.93C29.732 49.3057 28.8721 49.5007 28.0012 49.5007C27.1303 49.5007 26.2704 49.3057 25.4847 48.93C24.7963 48.6033 24.1383 48.0433 22.8247 46.921C22.4854 46.616 22.1294 46.3301 21.7583 46.0647C21.1171 45.6349 20.397 45.3367 19.6397 45.1873C19.1901 45.1125 18.7368 45.0626 18.2817 45.038C16.5573 44.9027 15.6963 44.8327 14.9777 44.5783C14.1568 44.2887 13.4112 43.819 12.7955 43.2036C12.1798 42.5883 11.7096 41.843 11.4193 41.0223C11.165 40.3037 11.0973 39.4403 10.9597 37.7183C10.9364 37.2625 10.8873 36.8083 10.8127 36.358C10.663 35.6015 10.3648 34.8822 9.93534 34.2417C9.74868 33.9617 9.52468 33.7003 9.07901 33.1753C7.95901 31.8593 7.39668 31.2013 7.06768 30.5153C6.69196 29.7296 6.49695 28.8698 6.49695 27.9988C6.49695 27.1279 6.69196 26.2681 7.06768 25.4823C7.39668 24.7963 7.95668 24.1383 9.07901 22.8223C9.52468 22.2973 9.74868 22.036 9.93534 21.756C10.3648 21.1155 10.663 20.3962 10.8127 19.6397C10.878 19.3083 10.906 18.9653 10.9597 18.2793C11.0973 16.5573 11.165 15.6963 11.4193 14.9753C11.7098 14.1544 12.1804 13.409 12.7965 12.7936C13.4126 12.1783 14.1587 11.7087 14.98 11.4193C15.6987 11.165 16.5597 11.095 18.284 10.9597C18.97 10.9037 19.3107 10.8757 19.642 10.8103C20.3993 10.661 21.1195 10.3628 21.7607 9.93301C22.0407 9.74634 22.2997 9.52468 22.8223 9.07668Z" stroke="#566AED" stroke-width="2.5"/>
<path d="M19.8334 29.1666L24.5 33.8333L36.1667 22.1666" stroke="#566AED" stroke-width="2.5" stroke-linecap="round" stroke-linejoin="round"/>
</svg>
