<svg width="30" height="30" viewBox="0 0 30 30" fill="none" xmlns="http://www.w3.org/2000/svg">
<path fill-rule="evenodd" clip-rule="evenodd" d="M14.9241 0.666687H15.0761C18.1547 0.666687 20.5667 0.666687 22.4494 0.92002C24.3747 1.17869 25.8947 1.72002 27.0881 2.91202C28.2814 4.10535 28.8214 5.62535 29.0801 7.55202C29.3334 9.43335 29.3334 11.8454 29.3334 14.924V16.2974C29.3343 16.3227 29.3343 16.348 29.3334 16.3734C29.3281 18.8427 29.2974 20.84 29.0801 22.448C28.8214 24.3747 28.2801 25.8947 27.0881 27.088C25.8947 28.2814 24.3747 28.8214 22.4481 29.08C20.5667 29.3334 18.1547 29.3334 15.0761 29.3334H14.9241C11.8454 29.3334 9.4334 29.3334 7.55073 29.08C5.6254 28.8214 4.1054 28.28 2.91206 27.088C1.71873 25.8947 1.17873 24.3747 0.920062 22.448C0.702728 20.8387 0.672062 18.8427 0.666728 16.3734C0.665778 16.348 0.665778 16.3227 0.666728 16.2974V14.924C0.666728 11.8454 0.666728 9.43335 0.920062 7.55069C1.17873 5.62535 1.72006 4.10535 2.91206 2.91202C4.1054 1.71869 5.6254 1.17869 7.55206 0.92002C9.4334 0.666687 11.8454 0.666687 14.9241 0.666687ZM2.67073 17.3334C2.68406 19.3374 2.73073 20.9067 2.9014 22.1814C3.13073 23.8867 3.56806 24.9147 4.32673 25.6747C5.08673 26.4334 6.1134 26.8694 7.81873 27.0987C9.55206 27.3307 11.8294 27.3334 15.0001 27.3334C18.1707 27.3334 20.4481 27.3307 22.1814 27.0987C23.8867 26.8694 24.9147 26.432 25.6747 25.6734C26.4334 24.9134 26.8694 23.8867 27.0987 22.1814C27.2694 20.9067 27.3161 19.3374 27.3281 17.3334H24.1201C22.8214 17.3334 22.4814 17.3547 22.1974 17.4854C21.9121 17.6174 21.6747 17.8614 20.8294 18.8454L20.0227 19.788L19.9054 19.924C19.2361 20.7067 18.7054 21.3267 17.9721 21.664C17.2387 22.0014 16.4227 22.0014 15.3934 22H14.6081C13.5774 22 12.7614 22.0027 12.0281 21.664C11.2947 21.3267 10.7641 20.7067 10.0947 19.924C10.0547 19.88 10.0174 19.8347 9.9774 19.788L9.17073 18.8467C8.3254 17.86 8.08806 17.6174 7.80273 17.4867C7.51873 17.3547 7.17873 17.3334 5.88006 17.3334H2.67073ZM27.3334 15.3334H23.9414C22.9107 15.3334 22.0947 15.3307 21.3614 15.6694C20.6281 16.0067 20.0974 16.6267 19.4281 17.4094C19.3881 17.4534 19.3507 17.4987 19.3107 17.5454L18.5041 18.4867C17.6587 19.4734 17.4214 19.716 17.1361 19.8467C16.8521 19.9787 16.5121 20 15.2134 20H14.7867C13.4881 20 13.1481 19.9787 12.8641 19.848C12.5787 19.716 12.3414 19.472 11.4961 18.488L10.6894 17.5454L10.5721 17.4094C9.90273 16.6267 9.37206 16.0067 8.63873 15.6694C7.9054 15.3307 7.0894 15.332 6.06006 15.3334H2.66673V15C2.66673 11.8294 2.6694 9.55202 2.9014 7.81869C3.13073 6.11335 3.56806 5.08535 4.32673 4.32535C5.08673 3.56669 6.1134 3.13069 7.81873 2.90135C9.55206 2.66935 11.8294 2.66669 15.0001 2.66669C18.1707 2.66669 20.4481 2.66935 22.1814 2.90135C23.8867 3.13069 24.9147 3.56802 25.6747 4.32669C26.4334 5.08669 26.8694 6.11335 27.0987 7.81869C27.3307 9.55202 27.3334 11.8294 27.3334 15V15.3334ZM8.66673 8.33335C8.66673 8.06814 8.77209 7.81378 8.95962 7.62625C9.14716 7.43871 9.40151 7.33335 9.66673 7.33335H20.3334C20.5986 7.33335 20.853 7.43871 21.0405 7.62625C21.228 7.81378 21.3334 8.06814 21.3334 8.33335C21.3334 8.59857 21.228 8.85292 21.0405 9.04046C20.853 9.228 20.5986 9.33335 20.3334 9.33335H9.66673C9.40151 9.33335 9.14716 9.228 8.95962 9.04046C8.77209 8.85292 8.66673 8.59857 8.66673 8.33335ZM11.3334 13C11.3334 12.7348 11.4388 12.4804 11.6263 12.2929C11.8138 12.1054 12.0682 12 12.3334 12H17.6667C17.9319 12 18.1863 12.1054 18.3738 12.2929C18.5614 12.4804 18.6667 12.7348 18.6667 13C18.6667 13.2652 18.5614 13.5196 18.3738 13.7071C18.1863 13.8947 17.9319 14 17.6667 14H12.3334C12.0682 14 11.8138 13.8947 11.6263 13.7071C11.4388 13.5196 11.3334 13.2652 11.3334 13Z" fill="white"/>
</svg>
